<svg height="1em" style="flex:none;line-height:1" viewBox="0 0 24 24" width="1em" xmlns="http://www.w3.org/2000/svg"><title>CC Switch</title><defs><linearGradient id="cc-switch-teal" gradientUnits="userSpaceOnUse" x1="4" x2="11.5" y1="3" y2="11"><stop stop-color="#78B0AE"></stop><stop offset="1" stop-color="#68A3A1"></stop></linearGradient><linearGradient id="cc-switch-yellow" gradientUnits="userSpaceOnUse" x1="11" x2="22" y1="11" y2="4"><stop stop-color="#E3A04F"></stop><stop offset="1" stop-color="#F4BD54"></stop></linearGradient><linearGradient id="cc-switch-orange" gradientUnits="userSpaceOnUse" x1="11" x2="19" y1="10" y2="21"><stop stop-color="#D88D5A"></stop><stop offset="1" stop-color="#DE9160"></stop></linearGradient></defs><g fill="none" stroke-linecap="round" stroke-width="2.8"><path d="M11.34 10.87 7.85 1.36" stroke="url(#cc-switch-teal)"></path><path d="M11.34 10.87 3.11 5.06" stroke="url(#cc-switch-teal)"></path><path d="M11.34 10.87 6.49 21.29" stroke="url(#cc-switch-teal)"></path><path d="M11.34 10.87 19.32 3.83" stroke="url(#cc-switch-yellow)"></path><path d="M11.34 10.87 22.24 9.81" stroke="url(#cc-switch-yellow)"></path><path d="M11.34 10.87 20.99 16.89" stroke="url(#cc-switch-yellow)"></path><path d="M11.34 10.87 13.85 22.15" stroke="url(#cc-switch-yellow)"></path><path d="M11.34 10.87 14.15 1.3" stroke="url(#cc-switch-orange)"></path><path d="M11.34 10.87 1.54 11.1" stroke="url(#cc-switch-orange)"></path><path d="M11.34 10.87 3.43 17.78" stroke="url(#cc-switch-orange)"></path><path d="M11.34 10.87 10.03 22.15" stroke="url(#cc-switch-orange)"></path><path d="M11.34 10.87 19.27 19.38" stroke="url(#cc-switch-orange)"></path><path d="M11.34 10.87 22.06 13.74" stroke="url(#cc-switch-orange)"></path></g></svg>
